<svg width="148" height="32" viewBox="0 0 150 32" fill="none" xmlns="http://www.w3.org/2000/svg">
<path fill-rule="evenodd" clip-rule="evenodd" d="M1.46849 22.5221C0.626387 22.0494 0.62639 20.8372 1.46849 20.3644L9.24293 16L1.46849 11.6356C0.626387 11.1628 0.62639 9.95062 1.46849 9.47788L17.7875 0.316742C18.5398 -0.105582 19.4578 -0.10558 20.2101 0.316744L36.5292 9.47788C37.3713 9.95062 37.3713 11.1628 36.5291 11.6356L28.7547 16L36.5292 20.3644C37.3713 20.8372 37.3713 22.0494 36.5291 22.5221L20.2101 31.6833C19.4578 32.1056 18.5398 32.1056 17.7875 31.6833L1.46849 22.5221ZM19.3111 1.91813L34.6994 10.5567L28.5512 14.0082C27.6316 9.5754 23.7042 6.24413 18.9988 6.24413C14.2934 6.24413 10.366 9.57539 9.44643 14.0082L3.29829 10.5567L18.6865 1.91812C18.8805 1.80924 19.1172 1.80924 19.3111 1.91813ZM18.9988 8.08059C23.0092 8.08059 26.3234 11.0616 26.8464 14.9287L20.2101 11.2033C19.4578 10.781 18.5398 10.781 17.7875 11.2033L11.1512 14.9288C11.6742 11.0617 14.9883 8.08059 18.9988 8.08059ZM17.7875 20.7967L11.1512 17.0712C11.6742 20.9383 14.9883 23.9194 18.9988 23.9194C23.0092 23.9194 26.3234 20.9384 26.8464 17.0713L20.2101 20.7967C19.4578 21.219 18.5398 21.219 17.7875 20.7967ZM18.9988 25.7559C14.2934 25.7559 10.366 22.4246 9.44643 17.9918L3.29829 21.4433L18.6865 30.0819C18.8805 30.1908 19.1172 30.1908 19.3111 30.0819L34.6994 21.4433L28.5512 17.9918C27.6316 22.4246 23.7042 25.7559 18.9988 25.7559ZM25.0031 16L19.3111 19.1953C19.1172 19.3042 18.8805 19.3042 18.6865 19.1953L12.9946 16L18.6865 12.8047C18.8805 12.6958 19.1172 12.6958 19.3111 12.8047L25.0031 16Z" fill="white"></path>
<path fill-rule="evenodd" clip-rule="evenodd" d="M56.1121 27.1856C53.9407 27.1856 52.0407 26.7285 50.4122 25.8142C48.7836 24.8714 47.5122 23.5571 46.5979 21.8714C45.7122 20.1571 45.2694 18.2 45.2694 16C45.2694 13.7714 45.6979 11.8143 46.5551 10.1286C47.4408 8.44292 48.6693 7.14293 50.2407 6.22865C51.8122 5.2858 53.6121 4.81437 55.6407 4.81437C57.6407 4.81437 59.4121 5.22866 60.9549 6.05722C62.4978 6.88579 63.7121 8.08578 64.5978 9.65719C65.4835 11.2286 65.9549 13.0715 66.012 15.1857C66.012 15.681 65.981 16.1935 65.9263 16.6857H48.955V16.9857C48.9836 18.3857 49.2836 19.6285 49.855 20.7143C50.455 21.7714 51.2693 22.6 52.2979 23.1999C53.3264 23.7714 54.5121 24.0571 55.855 24.0571C57.4264 24.0571 58.755 23.6714 59.8407 22.8999C60.9549 22.1 61.6978 21 62.0692 19.6H65.6263C65.3406 21.0571 64.7549 22.3714 63.8692 23.5428C63.0121 24.6856 61.9121 25.5856 60.5692 26.2428C59.255 26.8713 57.7693 27.1856 56.1121 27.1856ZM55.6836 7.90006C54.5979 7.90006 53.5836 8.14292 52.6407 8.62863C51.6979 9.11434 50.9122 9.81433 50.2836 10.7286C49.655 11.6143 49.2836 12.6286 49.1693 13.7714H62.3692C62.1978 11.9143 61.4978 10.4715 60.2692 9.44291C59.0692 8.41435 57.5407 7.90006 55.6836 7.90006Z" fill="white"></path>
<path fill-rule="evenodd" clip-rule="evenodd" d="M99.0324 27.1856C96.861 27.1856 94.961 26.7285 93.3325 25.8142C91.7039 24.8714 90.4325 23.5571 89.5182 21.8714C88.6325 20.1571 88.1897 18.2 88.1897 16C88.1897 13.7714 88.6182 11.8143 89.4754 10.1286C90.3611 8.44292 91.5896 7.14293 93.1611 6.22865C94.7325 5.2858 96.5325 4.81437 98.561 4.81437C100.561 4.81437 102.332 5.22866 103.875 6.05722C105.418 6.88579 106.632 8.08578 107.518 9.65719C108.404 11.2286 108.875 13.0715 108.932 15.1857C108.932 15.681 108.901 16.1935 108.847 16.6857H91.8754V16.9857C91.9039 18.3857 92.2039 19.6285 92.7754 20.7143C93.3753 21.7714 94.1896 22.6 95.2182 23.1999C96.2468 23.7714 97.4325 24.0571 98.7753 24.0571C100.347 24.0571 101.675 23.6714 102.761 22.8999C103.875 22.1 104.618 21 104.99 19.6H108.547C108.261 21.0571 107.675 22.3714 106.79 23.5428C105.932 24.6856 104.832 25.5856 103.49 26.2428C102.175 26.8713 100.69 27.1856 99.0324 27.1856ZM98.6039 7.90006C97.5182 7.90006 96.5039 8.14292 95.561 8.62863C94.6182 9.11434 93.8325 9.81433 93.2039 10.7286C92.5753 11.6143 92.2039 12.6286 92.0896 13.7714H105.29C105.118 11.9143 104.418 10.4715 103.19 9.44291C101.99 8.41435 100.461 7.90006 98.6039 7.90006Z" fill="white"></path>
<path d="M131.014 5.07151L131.491 8.04577C132.142 7.22332 132.955 6.51762 133.929 5.92865C135.186 5.1858 136.771 4.81437 138.686 4.81437C141.343 4.81437 143.471 5.61437 145.071 7.21436C146.7 8.81434 147.514 11.3286 147.514 14.7572V26.9285H144V14.9714C144 12.7143 143.486 11 142.457 9.82862C141.457 8.62863 140 8.02864 138.086 8.02864C136.714 8.02864 135.529 8.3572 134.529 9.01434C133.557 9.64291 132.8 10.5572 132.257 11.7572C131.743 12.9572 131.486 14.3714 131.486 16V26.9285H127.972V5.07151H131.014Z" fill="white"></path>
<path d="M110.641 5.07131V8.28557H116.813V23.714H110.641V26.9283H125.4V23.714H120.327V7.89666C120.327 6.33626 119.062 5.07131 117.501 5.07131H110.641Z" fill="white"></path>
<path d="M71.457 5.07154H67.2571L75.0142 15.7L66.6999 26.9285H70.5999L77.0284 18.1429L83.4569 26.9285H87.6569L79.2998 15.7L87.0998 5.07154H83.1998L77.2856 13.1715L71.457 5.07154Z" fill="white"></path>
</svg>
